<svg width="500" height="500" viewBox="0 0 500 500" fill="none" xmlns="http://www.w3.org/2000/svg">
<g clip-path="url(#clip0_55_206)">
<circle cx="250" cy="250" r="250" fill="#00B200"/>
<path d="M463.202 229.767C447.588 205.371 417.051 193.714 401.315 189.135C407.495 182.308 412.253 173.19 415.506 161.867C417.335 155.455 418.677 148.461 419.49 141.051C421.239 125.564 419.775 112.991 415.14 103.708C405.259 83.9328 383.871 83.9328 375.82 83.9328C367.769 83.9328 346.34 83.9328 336.46 103.708C331.865 112.991 330.401 125.522 332.109 141.051C332.963 148.628 334.305 155.622 336.094 161.867C339.713 174.481 344.877 183.182 350.244 189.177C333.776 194.048 300.881 206.787 286.243 233.514C275.508 224.064 261.073 224.064 254.771 224.064C248.021 224.064 231.919 224.064 221.062 235.679C206.953 207.245 172.797 194.048 155.841 189.093C162.022 182.266 166.779 173.149 170.032 161.867C171.862 155.455 173.204 148.461 174.017 141.051C175.766 125.564 174.302 112.991 169.666 103.708C169.626 103.624 169.585 103.583 169.544 103.5C195.324 88.0959 224.641 79.9778 254.73 79.9778C265.18 79.9778 275.589 80.9354 285.796 82.892L267.66 90.802C265.058 91.926 263.838 95.0067 264.977 97.6711C265.79 99.6694 267.701 100.835 269.694 100.835C270.344 100.835 271.035 100.71 271.686 100.419L305.028 85.8895C306.411 85.3066 307.468 84.0993 307.915 82.6422C308.363 81.1851 308.159 79.6032 307.346 78.3126L287.951 46.881C286.446 44.4247 283.274 43.717 280.916 45.2574C278.517 46.7977 277.826 50.045 279.33 52.4596L292.342 73.525C280.022 70.8606 267.416 69.4868 254.771 69.4868C222.526 69.4868 191.095 78.3126 163.526 95.0067C152.67 83.9328 136.974 83.9328 130.347 83.9328C122.296 83.9328 100.867 83.9328 90.9863 103.708C86.3915 112.991 84.9277 125.522 86.6355 141.051C87.4894 148.628 88.8312 155.622 90.6203 161.867C94.2392 174.439 99.3626 183.14 104.771 189.135C89.0345 193.714 58.5384 205.413 42.9244 229.767C33.7756 244.047 31.1326 260.533 35.1581 278.684C35.1987 278.934 35.2801 279.183 35.3614 279.392C37.9637 286.427 48.5357 298.292 70.1269 294.878C75.8602 299.957 93.2227 311.822 130.265 312.114H130.306H130.347C167.349 311.864 184.711 299.999 190.444 294.92C200.244 296.46 207.441 294.962 212.727 292.339C213.377 295.753 214.15 298.958 215.044 301.997C218.663 314.57 223.787 323.271 229.195 329.266C213.459 333.845 182.963 345.544 167.349 369.898C162.225 377.891 159.176 386.551 158.118 395.793C142.342 384.552 128.436 370.564 117.213 354.578L135.511 362.862C138.072 364.028 141.122 362.821 142.26 360.198C143.399 357.575 142.22 354.453 139.658 353.287L106.519 338.258C105.136 337.634 103.591 337.675 102.25 338.342C100.908 339.008 99.8912 340.257 99.5252 341.714L90.3764 377.6C89.6445 380.389 91.3116 383.262 94.0359 383.969C94.4832 384.094 94.8898 384.136 95.3371 384.136C97.6141 384.136 99.6879 382.596 100.257 380.223L106.275 356.701C119.897 377.183 137.625 394.835 157.996 408.199C158.281 411.654 158.81 415.193 159.582 418.815C159.623 419.065 159.704 419.314 159.786 419.523C162.388 426.558 172.96 438.381 194.551 435.009C200.284 440.088 217.647 451.953 254.689 452.245H254.73H254.771C291.813 451.995 309.176 440.13 314.909 435.009C336.5 438.423 347.072 426.558 349.675 419.523C349.756 419.273 349.837 419.065 349.878 418.815C353.903 400.664 351.261 384.178 342.112 369.898C326.498 345.502 295.961 333.845 280.225 329.266C286.405 322.438 291.163 313.321 294.416 301.997C295.188 299.291 295.839 296.46 296.449 293.588C301.206 295.253 307.509 296.169 315.641 294.878C321.374 299.957 338.737 311.822 375.739 312.072H375.779H375.82C393.426 311.947 406.56 309.2 416.156 305.827C409.528 327.184 398.794 347.167 384.684 364.444L384.806 341.922C384.806 339.049 382.57 336.676 379.724 336.676H379.683C376.877 336.676 374.6 339.008 374.56 341.88L374.316 378.974C374.316 380.514 374.966 381.971 376.105 382.97C377.04 383.803 378.219 384.219 379.439 384.219C379.683 384.219 379.967 384.219 380.211 384.136L416.034 378.432C418.84 377.974 420.71 375.31 420.304 372.479C419.856 369.607 417.254 367.692 414.489 368.108L392.085 371.688C409.162 350.914 421.605 326.435 428.314 300.291C431.852 298.251 434.332 296.294 435.918 294.878C457.509 298.292 468.081 286.427 470.683 279.392C470.765 279.142 470.846 278.934 470.887 278.684C474.993 260.533 472.391 244.047 463.202 229.767ZM345.934 158.911C344.307 153.249 343.088 146.838 342.274 139.844C340.77 126.397 341.868 115.864 345.568 108.454C351.748 96.0475 364.353 94.3823 375.82 94.3823C387.287 94.3823 399.851 96.0475 406.032 108.454C409.732 115.864 410.83 126.397 409.325 139.844C408.593 146.671 407.373 153.082 405.706 158.911C401.843 172.233 395.785 181.85 387.693 187.428C387.653 187.428 387.653 187.47 387.612 187.47C381.228 191.841 375.779 192.008 375.82 192.008C375.413 192.008 370.249 191.799 364.069 187.595C363.947 187.511 363.784 187.387 363.662 187.303C357.604 183.015 350.488 174.772 345.934 158.911ZM100.42 158.911C98.7933 153.249 97.5735 146.838 96.7602 139.844C95.2558 126.397 96.3536 115.864 100.054 108.454C106.234 96.0475 118.839 94.3823 130.306 94.3823C141.772 94.3823 154.337 96.0475 160.517 108.454C164.218 115.864 165.315 126.397 163.811 139.844C163.079 146.671 161.859 153.082 160.192 158.911C156.329 172.233 150.271 181.808 142.22 187.387C142.179 187.428 142.138 187.428 142.098 187.47C135.714 191.841 130.306 192.008 130.347 192.008C129.94 192.008 124.817 191.799 118.677 187.636C118.514 187.511 118.351 187.387 118.189 187.303C112.049 182.974 104.974 174.731 100.42 158.911ZM193.372 284.72L191.745 272.231C191.38 269.358 188.818 267.36 186.012 267.735C183.207 268.11 181.255 270.732 181.621 273.605L183.41 287.343C178.856 291.173 163.648 301.456 130.265 301.664C130.265 301.664 130.265 301.664 130.225 301.664C96.8822 301.415 81.6748 291.132 77.1614 287.343L78.9098 273.647C79.2758 270.774 77.324 268.151 74.5184 267.777C71.7127 267.402 69.1511 269.4 68.7851 272.273L67.1587 284.804C50.8534 286.844 45.7301 277.643 44.9575 275.978C41.7452 260.907 43.9003 247.294 51.382 235.596C67.9312 209.784 105.543 199.543 114.489 197.42C122.743 202.415 129.655 202.54 130.225 202.54C130.997 202.54 137.747 202.374 145.92 197.378C155.963 199.751 202.561 212.449 214.272 246.212C210.49 255.204 209.393 266.986 210.978 281.223C207.644 283.763 202.114 285.844 193.372 284.72ZM333.613 375.643C341.136 387.383 343.291 400.955 340.038 416.025C339.265 417.691 334.183 426.933 317.837 424.851L316.21 412.32C315.844 409.448 313.283 407.449 310.477 407.824C307.671 408.199 305.72 410.822 306.086 413.694L307.875 427.391C303.321 431.221 288.113 441.504 254.771 441.712C221.388 441.462 206.14 431.179 201.667 427.391L203.456 413.694C203.822 410.822 201.87 408.199 199.065 407.824C196.259 407.449 193.697 409.448 193.331 412.32L191.705 424.851C175.4 426.891 170.276 417.691 169.504 416.025C166.291 400.955 168.446 387.342 175.928 375.643C192.477 349.79 230.089 339.59 239.035 337.467C247.289 342.463 254.202 342.588 254.771 342.588C255.543 342.588 262.293 342.421 270.466 337.426C279.33 339.549 317.024 349.79 333.613 375.643ZM266.644 327.559C266.603 327.559 266.603 327.601 266.563 327.601C260.179 331.972 254.73 332.138 254.811 332.138C254.405 332.138 249.281 331.93 243.142 327.767C242.979 327.642 242.816 327.517 242.654 327.434C236.514 323.104 229.439 314.861 224.885 299.042C223.258 293.38 222.038 286.969 221.225 279.974C219.721 266.528 220.818 255.995 224.519 248.584C230.699 236.178 243.304 234.513 254.771 234.513C266.237 234.513 278.802 236.178 284.982 248.584C288.682 255.995 289.78 266.528 288.276 279.974C287.544 286.802 286.324 293.213 284.657 299.042C280.794 312.405 274.736 321.98 266.644 327.559ZM461.128 275.936C460.355 277.601 455.273 286.802 438.927 284.762L437.3 272.231C436.934 269.358 434.373 267.36 431.567 267.735C428.761 268.11 426.81 270.732 427.175 273.605L428.965 287.343C424.492 291.132 409.284 301.415 375.942 301.664C375.942 301.664 375.942 301.664 375.901 301.664C342.437 301.456 327.23 291.132 322.757 287.343L324.505 273.647C324.871 270.774 322.919 268.151 320.114 267.777C317.308 267.402 314.746 269.4 314.381 272.273L312.754 284.804C307.061 285.511 302.141 284.929 298.197 283.097C298.279 282.472 298.36 281.89 298.441 281.265C300.19 265.778 298.726 253.206 294.09 243.922C293.846 243.422 293.602 242.964 293.318 242.465C307.061 211.366 350.203 199.709 360.084 197.42C368.338 202.457 375.291 202.582 375.861 202.582C376.633 202.582 383.383 202.415 391.556 197.42C400.461 199.501 438.154 209.743 454.703 235.596C462.185 247.252 464.34 260.824 461.128 275.936Z" fill="white" stroke="white" stroke-width="4"/>
</g>
<defs>
<clipPath id="clip0_55_206">
<rect width="500" height="500" fill="white"/>
</clipPath>
</defs>
</svg>
