<svg width="500" height="500" viewBox="0 0 500 500" fill="none" xmlns="http://www.w3.org/2000/svg">
<g clip-path="url(#clip0_101_206)">
<circle cx="250" cy="250" r="242.5" fill="url(#paint0_linear_101_206)" stroke="url(#paint1_linear_101_206)" stroke-width="15"/>
<circle cx="250" cy="250" r="227.5" fill="url(#paint2_linear_101_206)" stroke="url(#paint3_linear_101_206)" stroke-width="15"/>
<path d="M443.198 232.872C428.844 211.037 400.77 200.604 386.303 196.505C391.985 190.394 396.359 182.233 399.349 172.098C401.032 166.36 402.265 160.1 403.013 153.467C404.62 139.606 403.275 128.353 399.013 120.043C389.929 102.344 370.266 102.344 362.865 102.344C355.463 102.344 335.763 102.344 326.679 120.043C322.455 128.353 321.109 139.569 322.679 153.467C323.464 160.249 324.698 166.509 326.343 172.098C329.67 183.389 334.417 191.176 339.352 196.542C324.212 200.902 293.97 212.304 280.513 236.226C270.644 227.767 257.373 227.767 251.579 227.767C245.374 227.767 230.57 227.767 220.589 238.164C207.618 212.714 176.217 200.902 160.629 196.467C166.311 190.357 170.685 182.196 173.675 172.098C175.357 166.36 176.591 160.1 177.339 153.467C178.946 139.606 177.6 128.353 173.339 120.043C173.301 119.969 173.264 119.932 173.227 119.857C196.927 106.07 223.879 98.804 251.542 98.804C261.149 98.804 270.719 99.661 280.101 101.412L263.429 108.492C261.037 109.498 259.915 112.256 260.962 114.64C261.709 116.429 263.466 117.472 265.298 117.472C265.896 117.472 266.532 117.36 267.13 117.1L297.783 104.095C299.054 103.574 300.026 102.493 300.437 101.189C300.848 99.8846 300.661 98.4687 299.914 97.3135L282.083 69.1808C280.699 66.9823 277.784 66.3489 275.616 67.7276C273.41 69.1063 272.774 72.0127 274.158 74.1739L286.12 93.0284C274.793 90.6437 263.205 89.414 251.579 89.414C221.935 89.414 193.039 97.3135 167.694 112.256C157.713 102.344 143.284 102.344 137.191 102.344C129.789 102.344 110.089 102.344 101.005 120.043C96.7808 128.353 95.435 139.569 97.0051 153.467C97.7901 160.249 99.0237 166.509 100.668 172.098C103.995 183.351 108.706 191.139 113.677 196.505C99.2106 200.604 71.1742 211.074 56.8196 232.872C48.4087 245.653 45.9788 260.409 49.6796 276.655C49.717 276.879 49.7918 277.102 49.8666 277.289C52.259 283.586 61.9783 294.205 81.828 291.15C87.0989 295.696 103.061 306.316 137.116 306.576H137.153H137.191C171.208 306.353 187.17 295.733 192.441 291.187C201.45 292.566 208.067 291.225 212.926 288.877C213.524 291.932 214.235 294.802 215.057 297.522C218.384 308.775 223.094 316.563 228.066 321.928C213.599 326.027 185.563 336.498 171.208 358.296C166.498 365.45 163.694 373.201 162.722 381.473C148.218 371.412 135.434 358.892 125.116 344.584L141.938 351.999C144.293 353.042 147.097 351.961 148.143 349.614C149.19 347.266 148.106 344.472 145.751 343.428L115.285 329.977C114.014 329.418 112.593 329.455 111.36 330.051C110.126 330.648 109.192 331.765 108.855 333.07L100.444 365.189C99.7713 367.686 101.304 370.257 103.809 370.89C104.22 371.002 104.594 371.04 105.005 371.04C107.098 371.04 109.005 369.661 109.528 367.537L115.06 346.484C127.583 364.817 143.882 380.616 162.61 392.577C162.872 395.67 163.358 398.837 164.068 402.079C164.105 402.302 164.18 402.526 164.255 402.712C166.647 409.009 176.367 419.592 196.216 416.574C201.487 421.12 217.449 431.739 251.504 432H251.542H251.579C285.634 431.776 301.596 421.157 306.867 416.574C326.716 419.629 336.436 409.009 338.828 402.712C338.903 402.489 338.978 402.302 339.015 402.079C342.716 385.832 340.286 371.077 331.875 358.296C317.521 336.46 289.447 326.027 274.98 321.928C280.662 315.817 285.036 307.657 288.026 297.522C288.737 295.1 289.335 292.566 289.895 289.995C294.269 291.485 300.063 292.305 307.54 291.15C312.81 295.696 328.772 306.316 362.79 306.539H362.827H362.865C379.051 306.427 391.125 303.968 399.948 300.95C393.854 320.065 383.985 337.951 371.014 353.415L371.126 333.256C371.126 330.685 369.07 328.561 366.453 328.561H366.416C363.837 328.561 361.743 330.648 361.706 333.219L361.482 366.419C361.482 367.798 362.08 369.102 363.126 369.996C363.986 370.741 365.07 371.114 366.192 371.114C366.416 371.114 366.678 371.114 366.902 371.04L399.835 365.935C402.415 365.525 404.134 363.14 403.76 360.606C403.349 358.035 400.957 356.321 398.415 356.694L377.817 359.898C393.518 341.305 404.957 319.395 411.125 295.994C414.377 294.168 416.657 292.417 418.115 291.15C437.965 294.205 447.684 283.586 450.077 277.289C450.151 277.065 450.226 276.879 450.263 276.655C454.039 260.409 451.647 245.653 443.198 232.872ZM335.389 169.453C333.894 164.385 332.772 158.647 332.025 152.387C330.642 140.351 331.651 130.924 335.053 124.291C340.735 113.187 352.323 111.697 362.865 111.697C373.406 111.697 384.957 113.187 390.639 124.291C394.041 130.924 395.05 140.351 393.667 152.387C392.994 158.498 391.873 164.236 390.34 169.453C386.789 181.376 381.219 189.984 373.78 194.977C373.743 194.977 373.743 195.014 373.705 195.014C367.837 198.927 362.827 199.076 362.865 199.076C362.491 199.076 357.743 198.889 352.061 195.126C351.949 195.052 351.8 194.94 351.688 194.865C346.118 191.027 339.576 183.649 335.389 169.453ZM109.678 169.453C108.182 164.385 107.061 158.647 106.313 152.387C104.93 140.351 105.939 130.924 109.341 124.291C115.023 113.187 126.611 111.697 137.153 111.697C147.695 111.697 159.246 113.187 164.928 124.291C168.33 130.924 169.339 140.351 167.956 152.387C167.283 158.498 166.161 164.236 164.629 169.453C161.078 181.376 155.508 189.947 148.106 194.94C148.069 194.977 148.031 194.977 147.994 195.014C142.125 198.927 137.153 199.076 137.191 199.076C136.817 199.076 132.107 198.889 126.462 195.163C126.312 195.052 126.163 194.94 126.013 194.865C120.369 190.99 113.864 183.612 109.678 169.453ZM195.132 282.058L193.637 270.879C193.301 268.308 190.946 266.52 188.366 266.855C185.787 267.191 183.993 269.538 184.329 272.109L185.974 284.406C181.787 287.834 167.806 297.037 137.116 297.224C137.116 297.224 137.116 297.224 137.078 297.224C106.425 297 92.4445 287.796 88.2951 284.406L89.9025 272.146C90.2389 269.575 88.4446 267.228 85.8653 266.892C83.2859 266.557 80.9309 268.346 80.5944 270.917L79.0992 282.133C64.109 283.958 59.3989 275.724 58.6887 274.233C55.7355 260.744 57.7167 248.56 64.595 238.089C79.8094 214.987 114.388 205.82 122.612 203.92C130.2 208.391 136.555 208.503 137.078 208.503C137.789 208.503 143.994 208.354 151.508 203.883C160.741 206.007 203.581 217.371 214.347 247.591C210.87 255.639 209.861 266.185 211.319 278.928C208.253 281.201 203.169 283.064 195.132 282.058ZM324.062 363.438C330.978 373.946 332.959 386.093 329.969 399.582C329.258 401.073 324.586 409.345 309.558 407.482L308.063 396.266C307.727 393.695 305.371 391.906 302.792 392.242C300.213 392.577 298.418 394.924 298.755 397.495L300.4 409.755C296.213 413.183 282.232 422.386 251.579 422.573C220.888 422.349 206.87 413.145 202.758 409.755L204.403 397.495C204.74 394.924 202.945 392.577 200.366 392.242C197.787 391.906 195.431 393.695 195.095 396.266L193.6 407.482C178.61 409.307 173.9 401.073 173.189 399.582C170.236 386.093 172.217 373.909 179.096 363.438C194.31 340.298 228.888 331.169 237.112 329.269C244.701 333.74 251.056 333.852 251.579 333.852C252.289 333.852 258.495 333.703 266.008 329.232C274.158 331.132 308.811 340.298 324.062 363.438ZM262.494 320.401C262.457 320.401 262.457 320.438 262.42 320.438C256.551 324.35 251.542 324.499 251.616 324.499C251.243 324.499 246.532 324.313 240.888 320.587C240.738 320.475 240.589 320.363 240.439 320.289C234.795 316.414 228.29 309.036 224.103 294.876C222.608 289.809 221.487 284.07 220.739 277.81C219.356 265.775 220.365 256.347 223.767 249.715C229.449 238.611 241.037 237.12 251.579 237.12C262.121 237.12 273.672 238.611 279.354 249.715C282.755 256.347 283.765 265.775 282.382 277.81C281.709 283.921 280.587 289.659 279.055 294.876C275.503 306.837 269.933 315.407 262.494 320.401ZM441.292 274.196C440.582 275.686 435.909 283.921 420.881 282.095L419.386 270.879C419.05 268.308 416.695 266.52 414.115 266.855C411.536 267.191 409.742 269.538 410.078 272.109L411.723 284.406C407.611 287.796 393.63 297 362.977 297.224C362.977 297.224 362.977 297.224 362.939 297.224C332.174 297.037 318.193 287.796 314.081 284.406L315.689 272.146C316.025 269.575 314.231 267.228 311.652 266.892C309.072 266.557 306.717 268.346 306.381 270.917L304.886 282.133C299.652 282.766 295.129 282.244 291.503 280.605C291.578 280.046 291.652 279.524 291.727 278.965C293.335 265.104 291.989 253.851 287.727 245.541C287.503 245.094 287.279 244.684 287.017 244.237C299.652 216.403 339.314 205.969 348.398 203.92C355.986 208.429 362.379 208.54 362.902 208.54C363.612 208.54 369.818 208.391 377.332 203.92C385.518 205.783 420.171 214.949 435.385 238.089C442.264 248.522 444.245 260.67 441.292 274.196Z" fill="white" stroke="white" stroke-width="4"/>
</g>
<defs>
<linearGradient id="paint0_linear_101_206" x1="251.094" y1="-0.25" x2="251.094" y2="500" gradientUnits="userSpaceOnUse">
<stop stop-color="#95BFF8"/>
<stop offset="0.557" stop-color="#84ADEF"/>
<stop offset="1" stop-color="#7CA4EB"/>
</linearGradient>
<linearGradient id="paint1_linear_101_206" x1="250.875" y1="0" x2="250.875" y2="500" gradientUnits="userSpaceOnUse">
<stop stop-color="#76A1F0"/>
<stop offset="1" stop-color="#6B90D5"/>
</linearGradient>
<linearGradient id="paint2_linear_101_206" x1="251.028" y1="14.765" x2="251.028" y2="485" gradientUnits="userSpaceOnUse">
<stop stop-color="#95BFF8"/>
<stop offset="0.557" stop-color="#84ADEF"/>
<stop offset="1" stop-color="#7CA4EB"/>
</linearGradient>
<linearGradient id="paint3_linear_101_206" x1="249.864" y1="15" x2="249.864" y2="485.783" gradientUnits="userSpaceOnUse">
<stop stop-color="#BBE0F7"/>
<stop offset="1" stop-color="#82B4FB"/>
</linearGradient>
<clipPath id="clip0_101_206">
<rect width="500" height="500" fill="white"/>
</clipPath>
</defs>
</svg>
