<svg width="24" height="24" viewBox="0 0 24 24" fill="none" xmlns="http://www.w3.org/2000/svg">
<g clip-path="url(#clip0_104_210)">
<circle cx="12" cy="12" r="7.5" fill="url(#paint0_linear_104_210)" stroke="url(#paint1_linear_104_210)" stroke-width="9"/>
<circle cx="12" cy="12" r="10.5" fill="url(#paint2_linear_104_210)" stroke="url(#paint3_linear_104_210)"/>
<path d="M20.6078 11.3904C19.9683 10.4175 18.7175 9.95263 18.0729 9.77001C18.3261 9.49774 18.5209 9.13416 18.6542 8.68259C18.7291 8.42692 18.7841 8.14801 18.8174 7.8525C18.889 7.23491 18.8291 6.73354 18.6392 6.36332C18.2345 5.57473 17.3584 5.57473 17.0286 5.57473C16.6989 5.57473 15.8211 5.57473 15.4164 6.36332C15.2282 6.73354 15.1682 7.23325 15.2382 7.8525C15.2732 8.15465 15.3281 8.43356 15.4014 8.68259C15.5496 9.18563 15.7612 9.53261 15.981 9.77167C15.3065 9.96591 13.9591 10.4739 13.3595 11.5398C12.9198 11.1629 12.3285 11.1629 12.0703 11.1629C11.7939 11.1629 11.1343 11.1629 10.6896 11.6261C10.1117 10.4922 8.71265 9.96591 8.01812 9.76835C8.27128 9.49608 8.46615 9.1325 8.59939 8.68259C8.67434 8.42692 8.7293 8.14801 8.76261 7.8525C8.83423 7.23491 8.77427 6.73354 8.5844 6.36332C8.58274 6.36 8.58107 6.35834 8.5794 6.35501C9.63535 5.74075 10.8362 5.41701 12.0687 5.41701C12.4967 5.41701 12.9231 5.45519 13.3411 5.53322L12.5983 5.84866C12.4917 5.89348 12.4418 6.01634 12.4884 6.12259C12.5217 6.20228 12.6 6.24876 12.6816 6.24876C12.7082 6.24876 12.7366 6.24378 12.7632 6.23216L14.1289 5.65276C14.1856 5.62951 14.2289 5.58137 14.2472 5.52326C14.2655 5.46516 14.2572 5.40207 14.2239 5.3506L13.4294 4.09716C13.3678 3.99921 13.2379 3.97099 13.1413 4.03242C13.043 4.09384 13.0147 4.22334 13.0763 4.31963L13.6093 5.15968C13.1046 5.05343 12.5883 4.99864 12.0703 4.99864C10.7496 4.99864 9.46213 5.3506 8.33291 6.01634C7.88821 5.57473 7.24532 5.57473 6.97384 5.57473C6.64406 5.57473 5.76633 5.57473 5.36161 6.36332C5.1734 6.73354 5.11344 7.23325 5.18339 7.8525C5.21837 8.15465 5.27333 8.43356 5.34662 8.68259C5.49485 9.18397 5.7047 9.53095 5.92622 9.77001C5.28166 9.95263 4.03251 10.4191 3.39295 11.3904C3.01821 11.9598 2.90995 12.6172 3.07484 13.3411C3.0765 13.351 3.07983 13.361 3.08316 13.3693C3.18976 13.6499 3.62279 14.123 4.50719 13.9869C4.74203 14.1894 5.45321 14.6626 6.9705 14.6742H6.97217H6.97384C8.48947 14.6642 9.20065 14.1911 9.43549 13.9885C9.83688 14.05 10.1317 13.9902 10.3482 13.8856C10.3748 14.0217 10.4065 14.1496 10.4431 14.2708C10.5914 14.7721 10.8012 15.1191 11.0227 15.3582C10.3782 15.5408 9.12903 16.0073 8.48947 16.9785C8.27961 17.2973 8.15469 17.6426 8.11139 18.0112C7.46517 17.5629 6.89556 17.0051 6.43587 16.3676L7.18536 16.698C7.29029 16.7444 7.4152 16.6963 7.46184 16.5917C7.50847 16.4871 7.46017 16.3626 7.35524 16.3161L5.99784 15.7168C5.94121 15.6919 5.87792 15.6936 5.82296 15.7201C5.76799 15.7467 5.72636 15.7965 5.71137 15.8546L5.33662 17.2857C5.30664 17.3969 5.37493 17.5115 5.48652 17.5397C5.50484 17.5447 5.5215 17.5463 5.53982 17.5463C5.63309 17.5463 5.71803 17.4849 5.74135 17.3903L5.98784 16.4523C6.5458 17.2691 7.27197 17.973 8.10639 18.5059C8.11805 18.6437 8.13971 18.7848 8.17135 18.9292C8.17302 18.9392 8.17635 18.9492 8.17968 18.9575C8.28627 19.238 8.71931 19.7095 9.6037 19.5751C9.83854 19.7776 10.5497 20.2508 12.067 20.2624H12.0687H12.0703C13.5876 20.2524 14.2988 19.7793 14.5337 19.5751C15.4181 19.7112 15.8511 19.238 15.9577 18.9575C15.961 18.9475 15.9644 18.9392 15.966 18.9292C16.1309 18.2054 16.0226 17.548 15.6479 16.9785C15.0083 16.0057 13.7575 15.5408 13.113 15.3582C13.3661 15.0859 13.561 14.7223 13.6942 14.2708C13.7259 14.1629 13.7525 14.05 13.7775 13.9354C13.9724 14.0018 14.2305 14.0383 14.5636 13.9869C14.7985 14.1894 15.5097 14.6626 17.0253 14.6725H17.027H17.0286C17.7498 14.6676 18.2878 14.558 18.6808 14.4235C18.4093 15.2752 17.9696 16.0721 17.3917 16.761L17.3967 15.8629C17.3967 15.7483 17.3051 15.6537 17.1885 15.6537H17.1869C17.0719 15.6537 16.9787 15.7467 16.977 15.8612L16.967 17.3405C16.967 17.4019 16.9936 17.46 17.0403 17.4998C17.0786 17.533 17.1269 17.5496 17.1769 17.5496C17.1869 17.5496 17.1985 17.5496 17.2085 17.5463L18.6758 17.3189C18.7908 17.3006 18.8674 17.1944 18.8507 17.0815C18.8324 16.9669 18.7258 16.8905 18.6125 16.9071L17.6948 17.0499C18.3944 16.2215 18.904 15.2453 19.1788 14.2027C19.3237 14.1214 19.4253 14.0433 19.4903 13.9869C20.3747 14.123 20.8077 13.6499 20.9143 13.3693C20.9176 13.3593 20.921 13.351 20.9226 13.3411C21.0908 12.6172 20.9843 11.9598 20.6078 11.3904ZM15.8045 8.56472C15.7378 8.33893 15.6879 8.08327 15.6546 7.80436C15.5929 7.26812 15.6379 6.84809 15.7895 6.55258C16.0426 6.05784 16.5589 5.99143 17.0286 5.99143C17.4983 5.99143 18.013 6.05784 18.2661 6.55258C18.4177 6.84809 18.4626 7.26812 18.401 7.80436C18.371 8.07663 18.3211 8.33229 18.2528 8.56472C18.0946 9.09598 17.8464 9.47948 17.515 9.70195C17.5133 9.70195 17.5133 9.70361 17.5116 9.70361C17.2501 9.87793 17.027 9.88457 17.0286 9.88457C17.012 9.88457 16.8004 9.87626 16.5473 9.70859C16.5423 9.70527 16.5356 9.70029 16.5306 9.69696C16.2825 9.52597 15.991 9.19725 15.8045 8.56472ZM5.74801 8.56472C5.68139 8.33893 5.63142 8.08327 5.59811 7.80436C5.53649 7.26812 5.58146 6.84809 5.73302 6.55258C5.98618 6.05784 6.50249 5.99143 6.97217 5.99143C7.44185 5.99143 7.9565 6.05784 8.20966 6.55258C8.36122 6.84809 8.40619 7.26812 8.34457 7.80436C8.31459 8.07663 8.26462 8.33229 8.19633 8.56472C8.03811 9.09598 7.78994 9.47782 7.46017 9.70029C7.4585 9.70195 7.45684 9.70195 7.45517 9.70361C7.19369 9.87793 6.97217 9.88457 6.97384 9.88457C6.95718 9.88457 6.74732 9.87626 6.49583 9.71025C6.48917 9.70527 6.48251 9.70029 6.47584 9.69696C6.22435 9.52431 5.93455 9.19559 5.74801 8.56472ZM9.5554 13.5818L9.48878 13.0837C9.47379 12.9692 9.36886 12.8895 9.25394 12.9044C9.13902 12.9194 9.05908 13.024 9.07407 13.1385L9.14735 13.6864C8.96081 13.8391 8.3379 14.2492 6.9705 14.2575C6.9705 14.2575 6.9705 14.2575 6.96884 14.2575C5.60311 14.2475 4.9802 13.8375 4.79533 13.6864L4.86694 13.1402C4.88193 13.0256 4.80199 12.921 4.68707 12.9061C4.57215 12.8912 4.46722 12.9708 4.45223 13.0854L4.38561 13.5851C3.71773 13.6665 3.50787 13.2996 3.47623 13.2332C3.34465 12.6322 3.43292 12.0893 3.73938 11.6228C4.41725 10.5935 5.95786 10.1851 6.32428 10.1004C6.66238 10.2996 6.94552 10.3046 6.96884 10.3046C7.00048 10.3046 7.27696 10.298 7.61173 10.0987C8.02312 10.1934 9.93181 10.6997 10.4115 12.0461C10.2566 12.4047 10.2116 12.8746 10.2766 13.4423C10.14 13.5436 9.91349 13.6266 9.5554 13.5818ZM15.2998 17.2076C15.6079 17.6758 15.6962 18.217 15.563 18.818C15.5313 18.8844 15.3231 19.253 14.6536 19.17L14.587 18.6703C14.572 18.5557 14.467 18.476 14.3521 18.491C14.2372 18.5059 14.1573 18.6105 14.1722 18.725L14.2455 19.2712C14.059 19.424 13.4361 19.834 12.0703 19.8423C10.703 19.8324 10.0784 19.4223 9.89517 19.2712L9.96845 18.725C9.98344 18.6105 9.9035 18.5059 9.78858 18.491C9.67366 18.476 9.56873 18.5557 9.55374 18.6703L9.48712 19.17C8.81924 19.2513 8.60938 18.8844 8.57774 18.818C8.44616 18.217 8.53444 17.6741 8.84089 17.2076C9.51876 16.1767 11.0594 15.7699 11.4258 15.6852C11.7639 15.8845 12.047 15.8895 12.0703 15.8895C12.102 15.8895 12.3785 15.8828 12.7132 15.6836C13.0763 15.7683 14.6203 16.1767 15.2998 17.2076ZM12.5567 15.2901C12.555 15.2901 12.555 15.2918 12.5534 15.2918C12.2919 15.4661 12.0687 15.4727 12.072 15.4727C12.0554 15.4727 11.8455 15.4644 11.594 15.2984C11.5873 15.2934 11.5807 15.2885 11.574 15.2851C11.3225 15.1125 11.0327 14.7838 10.8462 14.1529C10.7796 13.9271 10.7296 13.6714 10.6963 13.3925C10.6347 12.8563 10.6796 12.4363 10.8312 12.1408C11.0844 11.646 11.6007 11.5796 12.0703 11.5796C12.54 11.5796 13.0547 11.646 13.3078 12.1408C13.4594 12.4363 13.5044 12.8563 13.4427 13.3925C13.4128 13.6648 13.3628 13.9205 13.2945 14.1529C13.1363 14.6858 12.8881 15.0677 12.5567 15.2901ZM20.5229 13.2315C20.4913 13.2979 20.2831 13.6648 19.6135 13.5835L19.5469 13.0837C19.5319 12.9692 19.427 12.8895 19.3121 12.9044C19.1971 12.9194 19.1172 13.024 19.1322 13.1385L19.2055 13.6864C19.0223 13.8375 18.3994 14.2475 17.0336 14.2575C17.0336 14.2575 17.0336 14.2575 17.032 14.2575C15.6612 14.2492 15.0383 13.8375 14.8551 13.6864L14.9267 13.1402C14.9417 13.0256 14.8618 12.921 14.7469 12.9061C14.6319 12.8912 14.527 12.9708 14.512 13.0854L14.4454 13.5851C14.2122 13.6133 14.0107 13.5901 13.8491 13.517C13.8525 13.4921 13.8558 13.4689 13.8591 13.444C13.9307 12.8264 13.8708 12.325 13.6809 11.9548C13.6709 11.9349 13.6609 11.9166 13.6493 11.8967C14.2122 10.6566 15.9793 10.1917 16.3841 10.1004C16.7222 10.3013 17.007 10.3063 17.0303 10.3063C17.0619 10.3063 17.3384 10.2996 17.6732 10.1004C18.0379 10.1834 19.5819 10.5918 20.2597 11.6228C20.5662 12.0876 20.6545 12.6288 20.5229 13.2315Z" fill="white"/>
</g>
<defs>
<linearGradient id="paint0_linear_104_210" x1="12.0525" y1="-0.012" x2="12.0525" y2="24" gradientUnits="userSpaceOnUse">
<stop stop-color="#95BFF8"/>
<stop offset="0.557" stop-color="#84ADEF"/>
<stop offset="1" stop-color="#7CA4EB"/>
</linearGradient>
<linearGradient id="paint1_linear_104_210" x1="12.042" y1="0" x2="12.042" y2="24" gradientUnits="userSpaceOnUse">
<stop stop-color="#76A1F0"/>
<stop offset="1" stop-color="#6B90D5"/>
</linearGradient>
<linearGradient id="paint2_linear_104_210" x1="12.0481" y1="0.989" x2="12.0481" y2="23" gradientUnits="userSpaceOnUse">
<stop stop-color="#95BFF8"/>
<stop offset="0.557" stop-color="#84ADEF"/>
<stop offset="1" stop-color="#7CA4EB"/>
</linearGradient>
<linearGradient id="paint3_linear_104_210" x1="11.9936" y1="1" x2="11.9936" y2="23.0367" gradientUnits="userSpaceOnUse">
<stop stop-color="#BBE0F7"/>
<stop offset="1" stop-color="#82B4FB"/>
</linearGradient>
<clipPath id="clip0_104_210">
<rect width="24" height="24" fill="white"/>
</clipPath>
</defs>
</svg>
